<?xml version="1.0" encoding="utf-8"?>
<!-- Generator: Adobe Illustrator 18.0.0, SVG Export Plug-In . SVG Version: 6.00 Build 0)  -->
<!DOCTYPE svg PUBLIC "-//W3C//DTD SVG 1.1//EN" "http://www.w3.org/Graphics/SVG/1.1/DTD/svg11.dtd">
<svg version="1.1" id="Layer_1" xmlns="http://www.w3.org/2000/svg" xmlns:xlink="http://www.w3.org/1999/xlink" x="0px" y="0px" width="64px" height="64px" viewBox="120 120 260 260" enable-background="new 0 0 500 500" xml:space="preserve">
<g>
	<g>
		<path fill="#fff" d="M195.6,260.1c1.9,2.7,5.1,4.6,8.6,4.6c4.4,0,8.7-3.4,8.7-8.4c0-4.8-4-8.5-9.1-8.5c-1.9,0-3.8,0.5-5.6,1.3
			v-5.3l8.7-10.3h-15.5v-8h28.2v5.3l-8.4,10.3c6.4,2.5,10.7,8,10.7,15c0,9.8-7.7,16.4-17.3,16.4c-5.8,0-11.3-2.6-15.4-7.2
			L195.6,260.1z"/>
		<path fill="#fff" d="M253.9,225.6l-8.7,14.8h0.6c8.8,0,16.2,6.7,16.2,16c0,9-7.5,16.3-16.5,16.3c-8.7,0-17-6.2-17-15.8
			c0-4.6,2.1-8.7,4.6-12.8l10.9-18.4H253.9z M237.1,256.8c0,4.4,3.7,7.9,8.2,7.9c4.6,0,7.8-3.6,7.8-8.1c0-4.4-3.3-8.3-8.3-8.3
			c-1.7,0-3.2,0.3-5,1.1C238.7,251.2,237.1,253.7,237.1,256.8z"/>
		<path fill="#fff" d="M284.6,225c11.9,0,16.2,10.7,16.2,23.9c0,13.2-4.4,23.9-16.2,23.9c-11.9,0-16.2-10.7-16.2-23.9
			C268.3,235.6,272.7,225,284.6,225z M284.6,232.9c-5.4,0-7.3,7.2-7.3,15.9c0,8.7,1.9,15.9,7.3,15.9c5.4,0,7.3-7.2,7.3-15.9
			C291.8,240.1,289.9,232.9,284.6,232.9z"/>
		<path fill="#fff" d="M316.4,221.6c4,0,7.3,3.2,7.3,7.3c0,4-3.2,7.3-7.3,7.3c-4,0-7.3-3.2-7.3-7.3
			C309.1,224.9,312.3,221.6,316.4,221.6z M316.4,230.9c1.1,0,2-0.9,2-2c0-1.1-0.9-2-2-2c-1.1,0-2,0.9-2,2
			C314.4,230.1,315.3,230.9,316.4,230.9z"/>
	</g>
	<g>
		<path fill="#fff" d="M250.5,376.5c-70,0-127-57-127-127s57-127,127-127c28.8,0,56,9.4,78.6,27.2l-7.7,9.8
			c-20.4-16-44.9-24.5-70.8-24.5C187.3,135,136,186.3,136,249.5S187.3,364,250.5,364c63.2,0,114.5-51.4,114.5-114.5
			c0-26.7-9.4-52.7-26.5-73.3l9.6-8c18.9,22.7,29.4,51.6,29.4,81.2C377.5,319.5,320.5,376.5,250.5,376.5z"/>
		<polygon fill="#fff" points="331.8,160.1 335.8,198.8 369.7,172.6 		"/>
	</g>
</g>
</svg>
