<?xml version="1.0" ?><!DOCTYPE svg  PUBLIC '-//W3C//DTD SVG 1.1//EN'  'http://www.w3.org/Graphics/SVG/1.1/DTD/svg11.dtd'><svg enable-background="new 0 0 60 60" height="64px" id="Layer_1" version="1.1" viewBox="0 0 60 60" width="64px" xml:space="preserve" xmlns="http://www.w3.org/2000/svg" xmlns:xlink="http://www.w3.org/1999/xlink" fill="#fff"><g><g><polygon points="56,25 53.439,25 56.641,29 50,29 50,31 56.639,31 53.439,35 56,35 60,29.999    "/><polygon points="4,35 6.561,35 3.359,31 10,31 10,29 3.361,29 6.561,25 4,25 0,30.001    "/><polygon points="35,56 35,53.438 31,56.64 31,50 29,50 29,56.639 25,53.438 25,56 30.002,60    "/><polygon points="25,4 25,6.562 29,3.359 29,10 31,10 31,3.36 35,6.562 35,4 29.998,0    "/><g><path d="M38.098,40.152C37.924,28.162,35.982,23,30,23s-7.924,5.162-8.098,17.152C18.92,37.769,17,34.106,17,30      c0-7.169,5.83-13,13-13s13,5.831,13,13C43,34.106,41.08,37.769,38.098,40.152 M29.98,34.988c-6.016,0-5.127-7.31-5.127-7.31      s1.027-2.316,5.127-2.316c4.102,0,5.17,2.316,5.17,2.316S35.996,34.988,29.98,34.988 M30,15c-8.271,0-15,6.729-15,15      c0,8.271,6.729,15,15,15s15-6.729,15-15C45,21.729,38.271,15,30,15"/></g></g></g></svg>